<svg width="44" height="44" viewBox="0 0 44 44" fill="none" xmlns="http://www.w3.org/2000/svg">
<path d="M7.3333 25.6667L10.2201 37.2141C10.3013 37.5389 10.3419 37.7013 10.39 37.8431C10.8591 39.2281 12.1064 40.202 13.5639 40.3212C13.7131 40.3334 13.8805 40.3334 14.2152 40.3334C14.6344 40.3334 14.844 40.3334 15.0206 40.3163C16.7658 40.147 18.1469 38.7659 18.3162 37.0207C18.3333 36.8441 18.3333 36.6346 18.3333 36.2154V10.0834M33.9166 24.7501C37.4605 24.7501 40.3333 21.8772 40.3333 18.3334C40.3333 14.7896 37.4605 11.9167 33.9166 11.9167M18.7916 10.0834H11.9166C7.36027 10.0834 3.66662 13.7771 3.66663 18.3334C3.66663 22.8898 7.36028 26.5834 11.9166 26.5834H18.7916C22.0301 26.5834 25.9916 28.3194 29.0478 29.9854C30.8308 30.9574 31.7223 31.4434 32.3062 31.3718C32.8476 31.3055 33.257 31.0624 33.5744 30.6188C33.9166 30.1404 33.9166 29.1831 33.9166 27.2686V9.39827C33.9166 7.48374 33.9166 6.52647 33.5744 6.04805C33.257 5.6044 32.8476 5.3613 32.3062 5.29499C31.7223 5.22347 30.8308 5.70945 29.0478 6.6814C25.9916 8.34745 22.0301 10.0834 18.7916 10.0834Z" stroke="#0A013B" stroke-width="2" stroke-linecap="round" stroke-linejoin="round"/>
</svg>
