<svg width="44" height="44" viewBox="0 0 44 44" fill="none" xmlns="http://www.w3.org/2000/svg">
<path d="M9.16699 16.5003C9.16699 10.4506 9.16699 7.42579 11.0464 5.54639C12.9258 3.66699 15.9506 3.66699 22.0003 3.66699C28.05 3.66699 31.0749 3.66699 32.9543 5.54639C34.8337 7.42579 34.8337 10.4506 34.8337 16.5003V27.5003C34.8337 33.55 34.8337 36.5749 32.9543 38.4543C31.0749 40.3337 28.05 40.3337 22.0003 40.3337C15.9506 40.3337 12.9258 40.3337 11.0464 38.4543C9.16699 36.5749 9.16699 33.55 9.16699 27.5003V16.5003Z" stroke="#0A013B" stroke-width="2" stroke-linecap="round"/>
<path d="M20.167 34.834H23.8337" stroke="#0A013B" stroke-width="2" stroke-linecap="round" stroke-linejoin="round"/>
<path d="M16.5 3.66699L16.6632 4.64602C17.0168 6.7677 17.1936 7.82853 17.9212 8.47407C18.6802 9.14745 19.7563 9.16699 22 9.16699C24.2437 9.16699 25.3198 9.14745 26.0788 8.47407C26.8064 7.82853 26.9832 6.76769 27.3368 4.64602L27.5 3.66699" stroke="#0A013B" stroke-width="2" stroke-linejoin="round"/>
</svg>
